<mxfile host="drawio-plugin" modified="2023-02-15T09:22:30.707Z" agent="5.0 (Windows NT 6.2; Win64; x64) AppleWebKit/537.36 (KHTML, like Gecko) Chrome/98.0.4758.102 Safari/537.36" etag="xOyqjgYt0ocD70lvgl9i" version="20.5.3" type="embed"><diagram id="3dUuYnLyhmS534luN-og" name="Page-1"><mxGraphModel dx="2194" dy="740" grid="1" gridSize="10" guides="1" tooltips="1" connect="1" arrows="1" fold="1" page="1" pageScale="1" pageWidth="827" pageHeight="1169" math="0" shadow="0"><root><mxCell id="0"/><mxCell id="1" parent="0"/><mxCell id="2" value="user" style="rounded=0;whiteSpace=wrap;html=1;" vertex="1" parent="1"><mxGeometry x="50" y="200" width="120" height="60" as="geometry"/></mxCell><mxCell id="3" value="api-gateway" style="rounded=0;whiteSpace=wrap;html=1;" vertex="1" parent="1"><mxGeometry x="414" y="10" width="120" height="60" as="geometry"/></mxCell><mxCell id="4" value="auth" style="rounded=0;whiteSpace=wrap;html=1;" vertex="1" parent="1"><mxGeometry x="-120" y="160" width="120" height="60" as="geometry"/></mxCell><mxCell id="5" value="post" style="rounded=0;whiteSpace=wrap;html=1;" vertex="1" parent="1"><mxGeometry x="354" y="330" width="120" height="60" as="geometry"/></mxCell><mxCell id="6" value="news" style="rounded=0;whiteSpace=wrap;html=1;" vertex="1" parent="1"><mxGeometry x="414" y="540" width="120" height="60" as="geometry"/></mxCell><mxCell id="7" value="admin" style="rounded=0;whiteSpace=wrap;html=1;" vertex="1" parent="1"><mxGeometry x="280" y="210" width="120" height="60" as="geometry"/></mxCell><mxCell id="8" value="commentary" style="rounded=0;whiteSpace=wrap;html=1;" vertex="1" parent="1"><mxGeometry x="810" y="240" width="120" height="60" as="geometry"/></mxCell><mxCell id="9" value="subs" style="rounded=0;whiteSpace=wrap;html=1;" vertex="1" parent="1"><mxGeometry x="520" y="350" width="120" height="60" as="geometry"/></mxCell><mxCell id="10" value="notification" style="rounded=0;whiteSpace=wrap;html=1;" vertex="1" parent="1"><mxGeometry x="800" y="130" width="120" height="60" as="geometry"/></mxCell><mxCell id="11" value="email" style="rounded=0;whiteSpace=wrap;html=1;" vertex="1" parent="1"><mxGeometry x="-80" y="420" width="120" height="60" as="geometry"/></mxCell><mxCell id="12" value="statistic" style="rounded=0;whiteSpace=wrap;html=1;" vertex="1" parent="1"><mxGeometry x="800" y="10" width="120" height="60" as="geometry"/></mxCell><mxCell id="13" value="" style="endArrow=classic;html=1;rounded=0;entryX=0.5;entryY=0;entryDx=0;entryDy=0;exitX=0;exitY=0.5;exitDx=0;exitDy=0;" edge="1" parent="1" source="3" target="7"><mxGeometry width="50" height="50" relative="1" as="geometry"><mxPoint x="310" y="90" as="sourcePoint"/><mxPoint x="360" y="40" as="targetPoint"/></mxGeometry></mxCell><mxCell id="14" value="" style="endArrow=classic;html=1;rounded=0;exitX=1;exitY=0.5;exitDx=0;exitDy=0;entryX=0;entryY=0.5;entryDx=0;entryDy=0;" edge="1" parent="1" source="3" target="10"><mxGeometry width="50" height="50" relative="1" as="geometry"><mxPoint x="580" y="120" as="sourcePoint"/><mxPoint x="630" y="70" as="targetPoint"/></mxGeometry></mxCell><mxCell id="15" value="" style="endArrow=classic;html=1;rounded=0;entryX=0;entryY=0.5;entryDx=0;entryDy=0;exitX=0.5;exitY=1;exitDx=0;exitDy=0;" edge="1" parent="1" source="3" target="8"><mxGeometry width="50" height="50" relative="1" as="geometry"><mxPoint x="670" y="70" as="sourcePoint"/><mxPoint x="720" y="20" as="targetPoint"/></mxGeometry></mxCell><mxCell id="16" value="" style="endArrow=classic;html=1;rounded=0;entryX=0.5;entryY=0;entryDx=0;entryDy=0;exitX=0.5;exitY=1;exitDx=0;exitDy=0;" edge="1" parent="1" source="3" target="5"><mxGeometry width="50" height="50" relative="1" as="geometry"><mxPoint x="680" y="80" as="sourcePoint"/><mxPoint x="730" y="30" as="targetPoint"/><Array as="points"><mxPoint x="460" y="170"/></Array></mxGeometry></mxCell><mxCell id="17" value="" style="endArrow=classic;html=1;rounded=0;entryX=0.5;entryY=0;entryDx=0;entryDy=0;exitX=0.5;exitY=1;exitDx=0;exitDy=0;" edge="1" parent="1" source="3" target="6"><mxGeometry width="50" height="50" relative="1" as="geometry"><mxPoint x="690" y="90" as="sourcePoint"/><mxPoint x="740" y="40" as="targetPoint"/><Array as="points"><mxPoint x="630" y="200"/><mxPoint x="730" y="390"/></Array></mxGeometry></mxCell><mxCell id="18" value="" style="endArrow=classic;html=1;rounded=0;entryX=0;entryY=0.5;entryDx=0;entryDy=0;exitX=1;exitY=0.5;exitDx=0;exitDy=0;" edge="1" parent="1" source="3" target="12"><mxGeometry width="50" height="50" relative="1" as="geometry"><mxPoint x="700" y="100" as="sourcePoint"/><mxPoint x="750" y="50" as="targetPoint"/></mxGeometry></mxCell><mxCell id="20" value="" style="endArrow=classic;html=1;rounded=0;exitX=0.5;exitY=1;exitDx=0;exitDy=0;entryX=0.5;entryY=0;entryDx=0;entryDy=0;" edge="1" parent="1" source="7" target="11"><mxGeometry width="50" height="50" relative="1" as="geometry"><mxPoint x="260" y="270" as="sourcePoint"/><mxPoint x="310" y="220" as="targetPoint"/></mxGeometry></mxCell><mxCell id="21" value="" style="endArrow=classic;html=1;rounded=0;entryX=1;entryY=0.5;entryDx=0;entryDy=0;exitX=0;exitY=0.5;exitDx=0;exitDy=0;" edge="1" parent="1" source="3" target="2"><mxGeometry width="50" height="50" relative="1" as="geometry"><mxPoint x="730" y="130" as="sourcePoint"/><mxPoint x="780" y="80" as="targetPoint"/><Array as="points"/></mxGeometry></mxCell><mxCell id="22" value="" style="endArrow=classic;html=1;rounded=0;entryX=0.5;entryY=0;entryDx=0;entryDy=0;exitX=0;exitY=0.5;exitDx=0;exitDy=0;" edge="1" parent="1" source="3" target="4"><mxGeometry width="50" height="50" relative="1" as="geometry"><mxPoint x="740" y="140" as="sourcePoint"/><mxPoint x="790" y="90" as="targetPoint"/><Array as="points"><mxPoint x="250" y="30"/></Array></mxGeometry></mxCell><mxCell id="23" value="" style="endArrow=classic;html=1;rounded=0;entryX=0.5;entryY=0;entryDx=0;entryDy=0;exitX=0.5;exitY=1;exitDx=0;exitDy=0;" edge="1" parent="1" source="3" target="9"><mxGeometry width="50" height="50" relative="1" as="geometry"><mxPoint x="750" y="150" as="sourcePoint"/><mxPoint x="800" y="100" as="targetPoint"/><Array as="points"><mxPoint x="480" y="170"/></Array></mxGeometry></mxCell><mxCell id="26" value="" style="endArrow=classic;html=1;rounded=0;entryX=1;entryY=0.5;entryDx=0;entryDy=0;exitX=0.5;exitY=1;exitDx=0;exitDy=0;" edge="1" parent="1" source="9" target="11"><mxGeometry width="50" height="50" relative="1" as="geometry"><mxPoint x="364" y="440" as="sourcePoint"/><mxPoint x="414" y="390" as="targetPoint"/></mxGeometry></mxCell><mxCell id="27" value="" style="endArrow=classic;html=1;rounded=0;entryX=1;entryY=0.5;entryDx=0;entryDy=0;exitX=0;exitY=0.5;exitDx=0;exitDy=0;" edge="1" parent="1" source="6" target="11"><mxGeometry width="50" height="50" relative="1" as="geometry"><mxPoint x="770" y="170" as="sourcePoint"/><mxPoint x="820" y="120" as="targetPoint"/></mxGeometry></mxCell><mxCell id="28" value="" style="endArrow=classic;html=1;rounded=0;entryX=0.5;entryY=0;entryDx=0;entryDy=0;exitX=0.5;exitY=1;exitDx=0;exitDy=0;" edge="1" parent="1" source="4" target="11"><mxGeometry width="50" height="50" relative="1" as="geometry"><mxPoint x="100" y="330" as="sourcePoint"/><mxPoint x="150" y="280" as="targetPoint"/></mxGeometry></mxCell><mxCell id="29" value="" style="endArrow=classic;html=1;rounded=0;entryX=0;entryY=0.5;entryDx=0;entryDy=0;exitX=1;exitY=0.5;exitDx=0;exitDy=0;" edge="1" parent="1" source="4" target="2"><mxGeometry width="50" height="50" relative="1" as="geometry"><mxPoint x="30" y="350" as="sourcePoint"/><mxPoint x="80" y="300" as="targetPoint"/></mxGeometry></mxCell><mxCell id="30" value="" style="endArrow=classic;html=1;rounded=0;entryX=0.5;entryY=0;entryDx=0;entryDy=0;exitX=0.5;exitY=1;exitDx=0;exitDy=0;" edge="1" parent="1" source="7" target="5"><mxGeometry width="50" height="50" relative="1" as="geometry"><mxPoint x="800" y="200" as="sourcePoint"/><mxPoint x="850" y="150" as="targetPoint"/></mxGeometry></mxCell><mxCell id="31" value="" style="endArrow=classic;html=1;rounded=0;entryX=1;entryY=0.5;entryDx=0;entryDy=0;exitX=0;exitY=0.5;exitDx=0;exitDy=0;" edge="1" parent="1" source="7" target="2"><mxGeometry width="50" height="50" relative="1" as="geometry"><mxPoint x="810" y="210" as="sourcePoint"/><mxPoint x="860" y="160" as="targetPoint"/></mxGeometry></mxCell><mxCell id="32" value="" style="shape=datastore;whiteSpace=wrap;html=1;rounded=0;" vertex="1" parent="1"><mxGeometry x="514" y="575" width="20" height="25" as="geometry"/></mxCell><mxCell id="33" value="" style="shape=datastore;whiteSpace=wrap;html=1;rounded=0;" vertex="1" parent="1"><mxGeometry x="910" y="275" width="20" height="25" as="geometry"/></mxCell><mxCell id="34" value="" style="shape=datastore;whiteSpace=wrap;html=1;rounded=0;" vertex="1" parent="1"><mxGeometry x="900" y="165" width="20" height="25" as="geometry"/></mxCell><mxCell id="35" value="" style="shape=datastore;whiteSpace=wrap;html=1;rounded=0;" vertex="1" parent="1"><mxGeometry x="900" y="45" width="20" height="25" as="geometry"/></mxCell><mxCell id="36" value="" style="shape=datastore;whiteSpace=wrap;html=1;rounded=0;" vertex="1" parent="1"><mxGeometry x="620" y="385" width="20" height="25" as="geometry"/></mxCell><mxCell id="37" value="" style="shape=datastore;whiteSpace=wrap;html=1;rounded=0;" vertex="1" parent="1"><mxGeometry x="454" y="365" width="20" height="25" as="geometry"/></mxCell><mxCell id="38" value="" style="shape=datastore;whiteSpace=wrap;html=1;rounded=0;" vertex="1" parent="1"><mxGeometry x="150" y="235" width="20" height="25" as="geometry"/></mxCell><mxCell id="39" value="" style="shape=datastore;whiteSpace=wrap;html=1;rounded=0;" vertex="1" parent="1"><mxGeometry x="-20" y="195" width="20" height="25" as="geometry"/></mxCell></root></mxGraphModel></diagram></mxfile>